<svg width="20" height="20" viewBox="0 0 20 20" fill="none" xmlns="http://www.w3.org/2000/svg">
<path d="M10 17.3769C14.2059 17.3769 17.7679 14.4912 19 10.4945C17.7633 6.50882 14.2059 3.61768 10 3.61768C5.79413 3.61768 2.23212 6.50882 1 10.5C2.23212 14.4912 5.79413 17.3824 10 17.3824V17.3769Z" fill="#D9D9D9"/>
<path d="M13.1762 10.5002C13.1762 12.2564 11.7559 13.6767 9.99971 13.6767C8.24352 13.6767 6.82324 12.2564 6.82324 10.5002C6.82324 8.74401 8.24352 7.32373 9.99971 7.32373C11.7559 7.32373 13.1762 8.7499 13.1762 10.5002Z" fill="white"/>
<path d="M3 3.5L17 17.5" stroke="#D9D9D9" stroke-width="1.5" stroke-linecap="round"/>
<path d="M4 2.5L18 16.5" stroke="white" stroke-width="1.5" stroke-linecap="round"/>
</svg>
